<?xml version="1.0" encoding="iso-8859-1"?>
<!-- Generator: Adobe Illustrator 16.0.0, SVG Export Plug-In . SVG Version: 6.00 Build 0)  -->
<!DOCTYPE svg PUBLIC "-//W3C//DTD SVG 1.1//EN" "http://www.w3.org/Graphics/SVG/1.1/DTD/svg11.dtd">
<svg version="1.1" id="Capa_1" xmlns="http://www.w3.org/2000/svg" xmlns:xlink="http://www.w3.org/1999/xlink" x="0px" y="0px"
	 width="98.1px" height="98.1px" viewBox="0 0 98.1 98.1" style="enable-background:new 0 0 98.1 98.1;" xml:space="preserve">
<g>
	<g>
		<path fill="#141414" d="M79.555,49.048c0-2.235-0.257-4.408-0.722-6.508c-0.507-2.337-1.304-4.555-2.313-6.654
			c-0.65-1.347-1.355-2.652-2.184-3.869c-0.821-1.22-1.759-2.348-2.738-3.431c-5.584-6.139-13.613-10.029-22.552-10.029
			c-6.462,0-12.451,2.036-17.391,5.478h-0.414c0,0.104,0.007,0.207,0.014,0.308c-2.726,1.966-5.126,4.37-7.068,7.117
			c-0.318,0.435-0.616,0.893-0.904,1.354c-0.778,1.216-1.461,2.481-2.053,3.805c-1.174,2.615-1.983,5.428-2.38,8.376
			c-0.182,1.334-0.308,2.689-0.308,4.063c0,16.821,13.687,30.507,30.505,30.507C65.869,79.551,79.555,65.869,79.555,49.048z
			 M74.887,47.449c-1.916,6.97-7.121,12.749-14.03,15.925c1.837-3.843,2.987-8.12,3.274-12.665c3.99-2.307,7.33-5.47,9.705-9.216
			C74.418,43.399,74.757,45.393,74.887,47.449z M72.389,37.859c-1.838,3.679-4.685,6.851-8.217,9.233
			c-0.15-4.047-0.982-7.909-2.378-11.451c1.673-1.885,2.96-4.122,3.706-6.596C68.395,31.436,70.742,34.442,72.389,37.859z
			 M62.481,26.932c-0.403,1.91-1.204,3.674-2.296,5.209c-1.729-3.253-3.956-6.162-6.57-8.573
			C56.808,24.143,59.799,25.303,62.481,26.932z M48.745,51.742c-4.09,0-7.955-0.879-11.396-2.417
			c-0.012-0.298-0.033-0.588-0.033-0.886c0-3.494,0.568-6.848,1.605-9.96c2.792,1.921,6.172,3.052,9.819,3.052
			c3.854,0,7.409-1.265,10.305-3.381c1.105,3.203,1.725,6.658,1.725,10.289c0,0.207-0.021,0.402-0.027,0.605
			C57.156,50.757,53.077,51.742,48.745,51.742z M60.497,52.495c-0.582,4.647-2.17,8.938-4.511,12.614
			c-2.307,0.589-4.736,0.914-7.241,0.914c-2.25,0-4.434-0.25-6.526-0.729c-2.357-3.647-3.97-7.919-4.598-12.535
			c3.428,1.311,7.182,2.047,11.124,2.047C52.927,54.802,56.903,53.974,60.497,52.495z M49.046,24.273
			c3.614,2.676,6.591,6.307,8.642,10.566c-2.427,2.014-5.544,3.23-8.942,3.23c-3.196,0-6.136-1.08-8.499-2.889
			C42.299,30.78,45.335,27.021,49.046,24.273z M44.473,23.568c-2.74,2.538-5.057,5.597-6.819,9.042
			c-1.207-1.559-2.096-3.371-2.562-5.347C37.895,25.454,41.071,24.189,44.473,23.568z M32.127,29.473
			c0.819,2.514,2.204,4.762,3.985,6.627c-1.325,3.528-2.1,7.356-2.206,11.372c-3.595-2.296-6.534-5.383-8.48-9
			C26.983,35,29.274,31.94,32.127,29.473z M23.142,49.048c0-2.382,0.347-4.685,0.953-6.889c2.471,3.651,5.869,6.701,9.894,8.9
			c0.335,4.558,1.535,8.836,3.412,12.661c-6.692-2.84-11.911-8.09-14.251-14.525C23.149,49.154,23.142,49.104,23.142,49.048z
			 M45.696,74.732c-9.507-1.238-17.402-7.648-20.778-16.31c3.761,4.455,8.972,7.843,14.967,9.544
			c1.624,2.358,3.527,4.463,5.661,6.26c0.224,0.089,0.452,0.157,0.683,0.232C46.05,74.562,45.87,74.641,45.696,74.732z
			 M49.046,72.617c-1.447-1.074-2.789-2.278-4.009-3.634c1.213,0.141,2.454,0.219,3.708,0.219c1.488,0,2.946-0.109,4.384-0.301
			C51.892,70.284,50.515,71.516,49.046,72.617z M52.393,74.732c-0.176-0.089-0.354-0.178-0.521-0.273
			c0.225-0.072,0.452-0.144,0.676-0.229c2.2-1.852,4.165-4.042,5.814-6.479c6.297-1.957,11.67-5.756,15.324-10.704
			C70.646,66.41,62.413,73.426,52.393,74.732z"/>
		<path fill="#141414" d="M59.442,12.88c0.147,0.017,0.281,0.034,0.438,0.051c0.917,0.1,1.95,0.187,3.114,0.488
			c0.581,0.123,1.184,0.253,1.804,0.385c0.608,0.196,1.242,0.396,1.885,0.607c1.324,0.351,2.595,1.04,3.98,1.598
			c1.287,0.75,2.7,1.408,3.959,2.361c1.342,0.84,2.525,1.932,3.775,2.958c1.111,1.155,2.31,2.259,3.261,3.545
			c1.067,1.198,1.845,2.568,2.71,3.831c0.678,1.366,1.499,2.62,1.972,3.949c0.26,0.655,0.523,1.285,0.773,1.899
			c0.195,0.638,0.376,1.248,0.555,1.839c0.4,1.17,0.595,2.288,0.78,3.28c0.096,0.498,0.185,0.957,0.267,1.388
			c0.041,0.435,0.075,0.833,0.109,1.191c0.127,1.447,0.205,2.277,0.205,2.277h1.007c0,0-0.014-0.854-0.034-2.354
			c-0.007-0.375-0.014-0.792-0.014-1.244c-0.059-0.448-0.11-0.936-0.172-1.454c-0.109-1.041-0.226-2.225-0.547-3.48
			c-0.144-0.633-0.288-1.288-0.438-1.971c-0.219-0.667-0.438-1.357-0.667-2.062c-0.397-1.447-1.146-2.842-1.77-4.348
			c-0.811-1.413-1.554-2.952-2.594-4.322c-0.924-1.465-2.115-2.756-3.244-4.11c-1.26-1.223-2.478-2.512-3.881-3.552
			c-1.317-1.153-2.81-2.009-4.195-2.948c-1.485-0.746-2.868-1.615-4.315-2.13c-0.716-0.291-1.41-0.571-2.077-0.845
			c-0.695-0.205-1.369-0.405-2.009-0.599c-1.27-0.424-2.529-0.646-3.648-0.844c-0.353-0.066-0.66-0.116-0.979-0.176V1.615
			l-11.143,8.581l11.143,8.578V12.88H59.442z"/>
		<path fill="#141414" d="M17.16,38.992h-5.898c0.019-0.152,0.036-0.284,0.056-0.443c0.094-0.914,0.183-1.951,0.484-3.111
			c0.122-0.578,0.255-1.184,0.385-1.809c0.2-0.605,0.399-1.237,0.606-1.882c0.354-1.325,1.045-2.589,1.602-3.983
			c0.75-1.284,1.408-2.699,2.363-3.96c0.837-1.343,1.927-2.527,2.957-3.771c1.153-1.116,2.26-2.31,3.543-3.259
			c1.201-1.066,2.568-1.847,3.833-2.716c1.36-0.679,2.618-1.492,3.946-1.962c0.652-0.271,1.287-0.529,1.899-0.786
			c0.638-0.188,1.25-0.375,1.843-0.549c1.167-0.4,2.286-0.588,3.27-0.775c0.495-0.094,0.96-0.182,1.388-0.262
			c0.438-0.043,0.835-0.077,1.196-0.109c1.446-0.134,2.274-0.207,2.274-0.207V8.404c0,0-0.855,0.012-2.351,0.032
			c-0.376,0.004-0.792,0.011-1.246,0.021c-0.448,0.05-0.938,0.103-1.456,0.166c-1.045,0.115-2.223,0.225-3.48,0.553
			c-0.635,0.137-1.297,0.284-1.976,0.432c-0.666,0.217-1.354,0.438-2.063,0.669c-1.444,0.394-2.835,1.143-4.346,1.769
			c-1.408,0.814-2.947,1.55-4.324,2.594c-1.461,0.926-2.755,2.113-4.103,3.244c-1.224,1.263-2.514,2.481-3.554,3.881
			c-1.153,1.314-2.009,2.81-2.947,4.193c-0.744,1.482-1.617,2.863-2.135,4.311c-0.288,0.715-0.568,1.408-0.84,2.081
			c-0.21,0.691-0.407,1.367-0.599,2.009c-0.428,1.268-0.648,2.531-0.845,3.651c-0.067,0.351-0.12,0.655-0.183,0.977H0l8.579,11.141
			L17.16,38.992z"/>
		<path fill="#141414" d="M37.159,85.231c-0.15-0.023-0.284-0.041-0.441-0.058c-0.912-0.1-1.949-0.186-3.112-0.489
			c-0.579-0.116-1.177-0.25-1.804-0.384c-0.607-0.198-1.237-0.396-1.882-0.605c-1.325-0.353-2.594-1.04-3.985-1.599
			c-1.285-0.749-2.698-1.409-3.959-2.36c-1.341-0.843-2.524-1.931-3.771-2.957c-1.118-1.157-2.312-2.263-3.258-3.549
			c-1.066-1.198-1.848-2.57-2.716-3.83c-0.678-1.368-1.494-2.621-1.962-3.949c-0.271-0.656-0.531-1.286-0.782-1.898
			c-0.193-0.641-0.375-1.249-0.554-1.838c-0.402-1.171-0.596-2.293-0.78-3.282c-0.096-0.496-0.183-0.954-0.267-1.386
			c-0.039-0.438-0.073-0.835-0.104-1.194c-0.134-1.447-0.204-2.275-0.204-2.275H6.574c0,0,0.01,0.855,0.031,2.354
			c0.005,0.376,0.012,0.79,0.019,1.242c0.048,0.448,0.107,0.94,0.164,1.454c0.116,1.04,0.231,2.225,0.554,3.48
			c0.139,0.633,0.288,1.29,0.435,1.975c0.218,0.664,0.438,1.354,0.669,2.06c0.395,1.444,1.145,2.841,1.769,4.347
			c0.813,1.413,1.552,2.95,2.592,4.322c0.933,1.465,2.117,2.758,3.246,4.109c1.264,1.226,2.481,2.513,3.882,3.553
			c1.314,1.156,2.808,2.012,4.195,2.95c1.482,0.746,2.866,1.615,4.317,2.128c0.71,0.295,1.405,0.571,2.077,0.846
			c0.691,0.209,1.364,0.407,2.009,0.599c1.268,0.425,2.525,0.644,3.651,0.846c0.349,0.064,0.659,0.116,0.977,0.174v6.469
			l11.141-8.583l-11.141-8.58v5.91H37.159z"/>
		<path fill="#141414" d="M89.523,48.767L80.94,59.911h5.9c-0.021,0.147-0.034,0.284-0.055,0.441c-0.097,0.917-0.186,1.951-0.486,3.114
			c-0.123,0.575-0.246,1.178-0.384,1.8c-0.198,0.612-0.403,1.242-0.612,1.883c-0.349,1.327-1.04,2.594-1.598,3.986
			c-0.746,1.283-1.41,2.7-2.361,3.96c-0.835,1.345-1.927,2.525-2.954,3.771c-1.159,1.116-2.262,2.313-3.548,3.262
			c-1.198,1.064-2.567,1.848-3.833,2.714c-1.358,0.678-2.615,1.495-3.942,1.964c-0.653,0.268-1.287,0.53-1.903,0.78
			c-0.636,0.195-1.252,0.373-1.841,0.555c-1.17,0.4-2.289,0.596-3.278,0.78c-0.493,0.096-0.958,0.185-1.39,0.26
			c-0.431,0.048-0.828,0.079-1.19,0.109c-1.444,0.131-2.272,0.206-2.272,0.206v1.006c0,0,0.855-0.014,2.351-0.034
			c0.373-0.004,0.791-0.011,1.242-0.018c0.452-0.051,0.941-0.105,1.458-0.167c1.048-0.113,2.225-0.227,3.484-0.551
			c0.633-0.141,1.293-0.284,1.975-0.436c0.667-0.215,1.352-0.438,2.057-0.663c1.45-0.397,2.84-1.146,4.353-1.773
			c1.41-0.814,2.946-1.55,4.326-2.59c1.457-0.935,2.751-2.118,4.1-3.248c1.225-1.263,2.515-2.478,3.556-3.881
			c1.153-1.313,2.009-2.806,2.946-4.195c0.742-1.481,1.615-2.861,2.136-4.309c0.287-0.715,0.567-1.41,0.842-2.084
			c0.208-0.688,0.403-1.365,0.595-2.006c0.432-1.266,0.65-2.532,0.85-3.647c0.064-0.35,0.116-0.66,0.178-0.979H98.1L89.523,48.767z"
			/>
	</g>
</g>
<g>
</g>
<g>
</g>
<g>
</g>
<g>
</g>
<g>
</g>
<g>
</g>
<g>
</g>
<g>
</g>
<g>
</g>
<g>
</g>
<g>
</g>
<g>
</g>
<g>
</g>
<g>
</g>
<g>
</g>
</svg>
