<?xml version="1.0" encoding="utf-8"?>
<!-- Svg Vector Icons : http://www.onlinewebfonts.com/icon -->
<!DOCTYPE svg PUBLIC "-//W3C//DTD SVG 1.1//EN" "http://www.w3.org/Graphics/SVG/1.1/DTD/svg11.dtd">
<svg version="1.1" xmlns="http://www.w3.org/2000/svg" xmlns:xlink="http://www.w3.org/1999/xlink" x="0px" y="0px" viewBox="0 0 1000 1000" enable-background="new 0 0 1000 1000" xml:space="preserve">
<metadata> Svg Vector Icons : http://www.onlinewebfonts.com/icon </metadata>
<g><g transform="translate(0.000000,511.000000) scale(0.100000,-0.100000)"><path d="M3084.3,4964.5c-144.2-70.8-177-169.4-177-541.2v-323.7h-184.6c-263,0-427.4-55.6-574.1-192.2c-68.3-63.2-149.2-166.9-182.1-232.7l-58.2-118.9V-351.6v-3907.4l60.7-123.9c73.3-146.7,194.7-273.1,338.9-349l106.2-58.2h2276.1h2276.1l139.1,78.4c75.9,43,177,126.5,220,184.6c169.5,220,161.9-30.4,154.3,4226l-7.6,3856.8l-60.7,123.9c-131.5,268.1-384.4,419.8-698,419.8H6549v316.1c0,364.2-27.8,465.3-156.8,543.7c-80.9,48-123.9,50.6-1651.5,50.6C3299.2,5010,3165.2,5007.5,3084.3,4964.5z M3767.1,3796.1v-809.3h1011.6h1011.6v809.3v809.3h202.3H6195V3593.7V2582.1H4778.7H3362.5v1011.6v1011.6h202.3h202.3V3796.1z M5486.8,3998.4v-202.3h-708.1h-708.1v202.3v202.3h708.1h708.1V3998.4z M5486.8,3391.4v-202.3h-708.1h-708.1v202.3v202.3h708.1h708.1V3391.4z M6561.7,2134.5c116.3-60.7,192.2-139.1,250.4-252.9c58.2-113.8,58.2-849.7,2.5-988.8c-50.6-118.9-126.5-197.3-252.9-265.5c-101.2-55.6-108.8-55.6-1833.5-55.6c-1724.8,0-1732.4,0-1833.5,55.6c-126.5,68.3-202.3,146.7-252.9,265.5c-55.6,134-55.6,842.2,0,976.2c65.8,151.7,184.6,252.9,366.7,311.1c35.4,10.1,827,17.7,1757.7,15.2C6447.9,2190.1,6460.5,2190.1,6561.7,2134.5z M3425.7-78.4c113.8-50.6,139.1-139.1,139.1-480.5c0-349-20.2-404.6-166.9-465.3c-111.3-48-515.9-48-627.2,0c-149.2,63.2-166.9,113.8-166.9,483c0,349,15.2,394.5,139.1,462.8C2811.1-40.5,3342.2-40.5,3425.7-78.4z M5087.3-121.4l83.4-73.3l7.6-316.1c12.6-483.1-45.5-548.8-488.1-548.8c-424.9,0-493.2,70.8-493.2,518.4c0,447.6,48.1,493.2,498.2,493.2C5001.3-48.1,5006.3-48.1,5087.3-121.4z M6708.4-75.9c129-65.8,144.2-113.8,144.2-465.4c0-369.2-17.7-419.8-166.9-483c-111.3-48-515.9-48-627.2,0c-149.2,60.7-166.9,113.8-166.9,470.4c2.5,472.9,30.4,503.3,475.4,505.8C6531.3-48.1,6678-60.7,6708.4-75.9z M3440.9-1641.4c96.1-53.1,123.9-156.8,123.9-467.9c0-462.8-27.8-490.6-488.1-493.2h-326.3l-73.3,73.3l-73.3,73.3v346.5v346.5l73.3,73.3c73.3,73.3,73.3,73.3,394.5,73.3C3246.1-1616.1,3413-1628.7,3440.9-1641.4z M5087.3-1689.4l83.4-73.3v-346.5v-346.5l-83.4-73.3c-80.9-73.3-83.5-73.3-397.1-73.3c-313.6,0-316.1,0-397.1,73.3l-83.5,73.3v346.5v346.5l83.5,73.3c80.9,73.3,83.5,73.3,397.1,73.3C5003.8-1616.1,5006.3-1616.1,5087.3-1689.4z M6779.2-1689.4l73.3-73.3v-346.5v-346.5l-73.3-73.3l-73.3-73.3h-326.3c-462.8,2.5-488.1,27.8-488.1,513.4c0,313.6,0,316.1,73.4,394.5l73.3,78.4H6372h333.8L6779.2-1689.4z M3397.9-3194.2c149.2-63.2,166.9-113.8,166.9-478v-326.3l-86-86l-86-86h-295.9c-462.8,0-490.6,27.8-493.2,488.1c0,182.1,12.6,346.5,27.8,374.3c58.2,111.3,172,149.2,435,149.2C3220.8-3158.8,3344.8-3171.4,3397.9-3194.2z M5019-3194.2c141.6-60.7,169.4-149.2,159.3-513.4l-7.6-316.1l-83.4-73.3c-80.9-73.3-86-73.3-392-73.3c-450.2,0-498.2,45.5-498.2,493.2c0,447.6,65.8,515.9,488.1,518.4C4841.9-3158.8,4963.3-3171.4,5019-3194.2z M6685.6-3194.2c149.2-63.2,166.9-113.8,166.9-483c-2.5-465.4-27.8-493.2-493.2-493.2h-295.9l-86,86l-86,86v326.3c0,361.7,17.7,414.8,161.9,478C6159.6-3148.6,6574.3-3148.6,6685.6-3194.2z"/><path d="M7712.4,558.9v-2225.6h189.7h189.7V558.9v2225.5h-189.7h-189.7V558.9z"/></g></g>
</svg>